<svg width="17" height="16" viewBox="0 0 17 16" fill="none" xmlns="http://www.w3.org/2000/svg">
<path fill-rule="evenodd" clip-rule="evenodd" d="M16.5 2.25C16.5 1.00736 15.4926 0 14.25 0H8.75C7.50736 0 6.5 1.00736 6.5 2.25V4.25C6.5 4.66421 6.83579 5 7.25 5C7.66421 5 8 4.66421 8 4.25V2.25C8 1.83579 8.33579 1.5 8.75 1.5H14.25C14.6642 1.5 15 1.83579 15 2.25V13.75C15 14.1642 14.6642 14.5 14.25 14.5H8.75C8.33579 14.5 8 14.1642 8 13.75V11.75C8 11.3358 7.66421 11 7.25 11C6.83579 11 6.5 11.3358 6.5 11.75V13.75C6.5 14.9926 7.50736 16 8.75 16H14.25C15.4926 16 16.5 14.9926 16.5 13.75V2.25Z" fill="#fd1a1a"/>
<path fill-rule="evenodd" clip-rule="evenodd" d="M13.5 8C13.5 7.58579 13.1642 7.25 12.75 7.25H3.20447L4.25172 6.30747C4.55961 6.03038 4.58457 5.55616 4.30747 5.24828C4.03038 4.94039 3.55616 4.91543 3.24828 5.19253L0.748277 7.44253C0.590241 7.58476 0.5 7.78738 0.5 8C0.5 8.21261 0.590241 8.41524 0.748277 8.55747L3.24828 10.8075C3.55616 11.0846 4.03038 11.0596 4.30747 10.7517C4.58457 10.4438 4.55961 9.96962 4.25172 9.69253L3.20447 8.75H12.75C13.1642 8.75 13.5 8.41421 13.5 8Z" fill="#fd1a1a"/>
</svg>
